<svg xmlns="http://www.w3.org/2000/svg" xml:space="preserve" width="512" height="512" viewBox="0 0 135.467 135.467"><path d="M99.045 198.68c-.376-.988-.504-112.92-.13-113.895.192-.501 2.704-.558 24.782-.557 13.837 0 26.264.156 28.45.358 18.716 1.727 31.176 12.437 34.946 30.038.86 4.014 1.032 11.098.374 15.388-2.647 17.248-13.392 28.345-30.68 31.687-2.188.423-6.192.6-16.723.74l-13.847.183V180.2c0 10.567-.137 17.938-.344 18.482l-.344.905H99.39Zm50.86-59.712c8.028-2.227 12.81-9.577 11.562-17.776-1.03-6.77-5.761-11.937-12.352-13.49-1.743-.412-4.623-.535-12.58-.539l-10.318-.005v32.456h10.68c9.265 0 10.987-.086 13.007-.646z" style="fill:#f65590;fill-opacity:1" transform="matrix(.7518 0 0 .7518 -9.914 -38.2)"/><path d="M54.76 200.418c-10.51-1.198-16.076-3.163-22.353-7.894-7.975-6.01-12.792-15.386-13.851-26.966-.497-5.43-.277-8.962.598-9.602.5-.366 3.178-.468 12.311-.468 14.08 0 13.24-.253 13.243 3.99.003 3.827.552 7.063 1.579 9.317 1.059 2.324 3.748 5.22 5.82 6.267 6.008 3.035 13.54 1.341 17.113-3.848 2.629-3.816 2.45-.726 2.648-45.652.174-39.411.193-40.345.862-40.834 1.013-.74 24.782-.74 25.795 0 .67.49.687 1.367.794 39.423.077 27.721-.009 40.025-.3 42.754-1.798 16.885-11.934 28.494-28.208 32.307-4.695 1.1-12.097 1.656-16.052 1.206z" style="fill:#1a79e5;fill-opacity:1" transform="matrix(.7518 0 0 .7518 -9.914 -38.2)"/></svg>